<?xml version="1.0" encoding="UTF-8"?>
<svg version="1.1" xmlns="http://www.w3.org/2000/svg" width="113" height="106">
<path d="M0 0 C13.41718794 8.98608951 21.98364642 21.11963762 25.47729492 36.93408203 C27.84189569 52.57224007 24.36271824 66.15239058 15.43823242 79.01611328 C13.47536462 81.62985369 11.36666689 83.81468002 8.94213867 86.00830078 C8.36850586 86.56259766 7.79487305 87.11689453 7.20385742 87.68798828 C-0.31403098 94.7087017 -7.73725467 98.50891659 -18.05786133 99.00830078 C-18.05786133 95.70830078 -18.05786133 92.40830078 -18.05786133 89.00830078 C-17.37981445 88.81236328 -16.70176758 88.61642578 -16.00317383 88.41455078 C-7.57069147 85.70494426 -0.0687681 81.52466094 4.94213867 74.00830078 C5.60213867 74.00830078 6.26213867 74.00830078 6.94213867 74.00830078 C7.31338867 73.04923828 7.31338867 73.04923828 7.69213867 72.07080078 C8.38174846 70.3812568 9.09364804 68.6984517 9.89526367 67.05908203 C14.93340965 56.58800997 16.38604074 45.64426562 13.18823242 34.34423828 C8.461697 21.56874924 -0.06866689 11.70419729 -12.51489258 5.97314453 C-23.36332264 1.85707353 -34.70161786 1.91050336 -45.56567383 5.93798828 C-58.00043307 11.59015157 -66.31357219 21.29373618 -71.19458008 33.95751953 C-74.49064138 45.60559137 -73.32672425 57.12770418 -67.74536133 67.82080078 C-60.82750468 79.14649529 -51.21700025 85.02504713 -39.05786133 90.00830078 C-39.05786133 92.97830078 -39.05786133 95.94830078 -39.05786133 99.00830078 C-49.71561931 98.65304218 -58.88737794 93.69324174 -67.05786133 87.00830078 C-67.05786133 86.34830078 -67.05786133 85.68830078 -67.05786133 85.00830078 C-68.54286133 84.51330078 -68.54286133 84.51330078 -70.05786133 84.00830078 C-80.56931797 72.48528137 -84.4292719 58.94158748 -84.26879883 43.66455078 C-83.33422331 27.46524186 -75.56542785 14.8269132 -63.90161133 4.00830078 C-46.79138642 -10.37420711 -18.76828841 -11.8104067 0 0 Z " fill="#D5D5D5" transform="translate(85.057861328125,6.99169921875)"/>
<path d="M0 0 C0.87366211 -0.00386719 1.74732422 -0.00773437 2.64746094 -0.01171875 C11.13110704 0.13684565 17.709177 2.2961708 25.5625 5.4375 C25.5625 15.3375 25.5625 25.2375 25.5625 35.4375 C15.5625 33.4375 15.5625 33.4375 11.8125 32.3125 C1.23527699 29.68934869 -8.90373073 31.6722471 -19.13671875 34.5625 C-22.4375 35.4375 -22.4375 35.4375 -25.4375 35.4375 C-25.4375 25.8675 -25.4375 16.2975 -25.4375 6.4375 C-22.1375 5.1175 -18.8375 3.7975 -15.4375 2.4375 C-14.43589844 2.03402344 -13.43429688 1.63054688 -12.40234375 1.21484375 C-8.25109918 0.12644102 -4.27780285 0.01306698 0 0 Z " fill="#2486BC" transform="translate(55.4375,37.5625)"/>
<path d="M0 0 C14.58079825 -1.05192132 25.93624268 3.88782633 37 13 C47.74646808 22.84421589 54.1567393 35.71636869 55.24609375 50.29296875 C55.55517857 65.80175393 51.1138593 79.03205024 40.625 90.625 C39.325625 91.800625 39.325625 91.800625 38 93 C37.42636719 93.55429688 36.85273437 94.10859375 36.26171875 94.6796875 C28.74383035 101.70040092 21.32060665 105.50061581 11 106 C11 102.7 11 99.4 11 96 C12.01707031 95.70609375 12.01707031 95.70609375 13.0546875 95.40625 C21.48716986 92.69664348 28.98909323 88.51636016 34 81 C34.66 81 35.32 81 36 81 C36.2475 80.360625 36.495 79.72125 36.75 79.0625 C37.43960979 77.37295602 38.15150937 75.69015091 38.953125 74.05078125 C43.99127098 63.57970919 45.44390207 52.63596484 42.24609375 41.3359375 C37.51391678 28.54519974 28.99504171 18.75602808 16.57421875 12.96484375 C12.47752321 11.42935999 8.32165673 10.61606596 4 10 C4 9.34 4 8.68 4 8 C2.68 8 1.36 8 0 8 C0 5.36 0 2.72 0 0 Z " fill="#2E8CBF" transform="translate(56,0)"/>
<path d="M0 0 C-1.46966358 3.39859703 -3.38037514 5.64963709 -6 8.25 C-6.70125 8.95640625 -7.4025 9.6628125 -8.125 10.390625 C-10 12 -10 12 -12 12 C-10.53033642 8.60140297 -8.61962486 6.35036291 -6 3.75 C-5.29875 3.04359375 -4.5975 2.3371875 -3.875 1.609375 C-2 0 -2 0 0 0 Z " fill="#E3E3E3" transform="translate(24,10)"/>
</svg>
